<svg width="121" height="35" viewBox="0 0 121 35" fill="none" xmlns="http://www.w3.org/2000/svg">
    <g clip-path="url(#clip0_15_698)">
        <path d="M17.5 35C27.165 35 35 27.165 35 17.5C35 7.83502 27.165 0 17.5 0C7.83502 0 0 7.83502 0 17.5C0 27.165 7.83502 35 17.5 35Z"
              fill="#5C30FD"/>
        <path d="M23.7829 18.8542C21.5603 21.0873 19.3313 23.3144 17.096 25.5356C14.1784 28.2933 10.0242 24.2484 12.71 21.2892C13.9815 20.0136 15.2092 18.7223 16.5381 17.5C15.2591 16.2224 14.0615 15.0568 12.8153 13.7833C10.9231 12.0285 12.1461 8.65635 14.7328 8.55723C15.6577 8.47657 16.4616 8.7876 17.1199 9.4459C19.3402 11.6607 21.5578 13.8783 23.7726 16.0986C24.5854 16.9155 24.5936 18.0394 23.7829 18.8542Z"
              fill="white"/>
    </g>
    <text x="40" y="25" fill="black" font-size="19" font-family="Arial, sans-serif">MealPlan</text>
    <defs>
        <clipPath id="clip0_15_698">
            <rect width="35" height="35" fill="white"/>
        </clipPath>
    </defs>
</svg>
