<svg width="121" height="35" viewBox="0 0 121 35" fill="none" xmlns="http://www.w3.org/2000/svg">
    <!-- MealPlan 텍스트 추가 -->
    <g clip-path="url(#clip0_55_727)">
        <path d="M17.5 35C27.165 35 35 27.165 35 17.5C35 7.83502 27.165 0 17.5 0C7.83502 0 0 7.83502 0 17.5C0 27.165 7.83502 35 17.5 35Z" fill="#5C30FD"/>
        <path d="M23.7829 18.8544C21.5603 21.0875 19.3314 23.3146 17.096 25.5358C14.1784 28.2935 10.0242 24.2486 12.7101 21.2894C13.9815 20.0138 15.2093 18.7225 16.5382 17.5002C15.2592 16.2226 14.0615 15.057 12.8153 13.7835C10.9231 12.0287 12.1461 8.65655 14.7328 8.55743C15.6577 8.47677 16.4616 8.7878 17.1199 9.4461C19.3402 11.6609 21.5578 13.8785 23.7727 16.0988C24.5855 16.9157 24.5937 18.0396 23.7829 18.8544Z" fill="white"/>
    </g>
    <text x="40" y="25" fill="white" font-size="19" font-family="Arial, sans-serif">MealPlan</text>
    <defs>
        <clipPath id="clip0_55_727">
            <rect width="35" height="35" fill="white"/>
        </clipPath>
    </defs>
</svg>
